<?xml version="1.0" encoding="UTF-8" standalone="no"?>
<!DOCTYPE svg PUBLIC "-//W3C//DTD SVG 1.1//EN"
 "http://www.w3.org/Graphics/SVG/1.1/DTD/svg11.dtd">
<!-- Generated by graphviz version 15.0.0 (20260523.1842)
 -->
<!-- Title: FL_vs_CKKS Pages: 1 -->
<svg width="1027pt" height="607pt"
 viewBox="0.00 0.00 1027.00 607.00" xmlns="http://www.w3.org/2000/svg" xmlns:xlink="http://www.w3.org/1999/xlink">
<g id="graph0" class="graph" transform="scale(1 1) rotate(0) translate(18 589)">
<title>FL_vs_CKKS</title>
<polygon fill="white" stroke="none" points="-18,18 -18,-589 1009.25,-589 1009.25,18 -18,18"/>
<g id="clust1" class="cluster">
<title>cluster_centralised</title>
<path fill="white" stroke="#4c78a8" d="M39.5,-8C39.5,-8 827.77,-8 827.77,-8 833.77,-8 839.77,-14 839.77,-20 839.77,-20 839.77,-223 839.77,-223 839.77,-229 833.77,-235 827.77,-235 827.77,-235 39.5,-235 39.5,-235 33.5,-235 27.5,-229 27.5,-223 27.5,-223 27.5,-20 27.5,-20 27.5,-14 33.5,-8 39.5,-8"/>
<text xml:space="preserve" text-anchor="middle" x="433.64" y="-217.7" font-family="Arial" font-size="14.00">(a) Centralised Learning</text>
</g>
<g id="clust2" class="cluster">
<title>cluster_federated</title>
<path fill="white" stroke="#59a14f" d="M20,-243C20,-243 842.4,-243 842.4,-243 848.4,-243 854.4,-249 854.4,-255 854.4,-255 854.4,-459 854.4,-459 854.4,-465 848.4,-471 842.4,-471 842.4,-471 20,-471 20,-471 14,-471 8,-465 8,-459 8,-459 8,-255 8,-255 8,-249 14,-243 20,-243"/>
<text xml:space="preserve" text-anchor="middle" x="431.2" y="-453.7" font-family="Arial" font-size="14.00">(b) Federated Learning (FedAvg)</text>
</g>
<g id="clust3" class="cluster">
<title>cluster_ckks</title>
<path fill="white" stroke="#9c6fb6" d="M29,-479C29,-479 971.25,-479 971.25,-479 977.25,-479 983.25,-485 983.25,-491 983.25,-491 983.25,-551 983.25,-551 983.25,-557 977.25,-563 971.25,-563 971.25,-563 29,-563 29,-563 23,-563 17,-557 17,-551 17,-551 17,-491 17,-491 17,-485 23,-479 29,-479"/>
<text xml:space="preserve" text-anchor="middle" x="500.12" y="-545.7" font-family="Arial" font-size="14.00">(c) CKKS Encrypted Inference</text>
</g>
<!-- ca -->
<g id="node1" class="node">
<title>ca</title>
<path fill="#dceaf7" stroke="black" d="M103.6,-57.7C103.6,-57.7 47.5,-57.7 47.5,-57.7 41.5,-57.7 35.5,-51.7 35.5,-45.7 35.5,-45.7 35.5,-28.3 35.5,-28.3 35.5,-22.3 41.5,-16.3 47.5,-16.3 47.5,-16.3 103.6,-16.3 103.6,-16.3 109.6,-16.3 115.6,-22.3 115.6,-28.3 115.6,-28.3 115.6,-45.7 115.6,-45.7 115.6,-51.7 109.6,-57.7 103.6,-57.7"/>
<text xml:space="preserve" text-anchor="middle" x="75.55" y="-40.05" font-family="Arial" font-size="11.00">Hospital A</text>
<text xml:space="preserve" text-anchor="middle" x="75.55" y="-26.55" font-family="Arial" font-size="11.00">Clinical data</text>
</g>
<!-- pooled -->
<g id="node4" class="node">
<title>pooled</title>
<path fill="#eaf2f8" stroke="black" d="M357.45,-125.69C357.45,-127.62 331.94,-129.18 300.52,-129.18 269.11,-129.18 243.6,-127.62 243.6,-125.69 243.6,-125.69 243.6,-94.31 243.6,-94.31 243.6,-92.38 269.11,-90.82 300.52,-90.82 331.94,-90.82 357.45,-92.38 357.45,-94.31 357.45,-94.31 357.45,-125.69 357.45,-125.69"/>
<path fill="none" stroke="black" d="M357.45,-125.69C357.45,-123.77 331.94,-122.21 300.52,-122.21 269.11,-122.21 243.6,-123.77 243.6,-125.69"/>
<text xml:space="preserve" text-anchor="middle" x="300.52" y="-106.3" font-family="Arial" font-size="11.00">Pooled clinical data</text>
</g>
<!-- ca&#45;&gt;pooled -->
<g id="edge1" class="edge">
<title>ca&#45;&gt;pooled</title>
<path fill="none" stroke="black" d="M115.9,-49.88C149.03,-60.73 197.04,-76.45 235.67,-89.09"/>
<polygon fill="black" stroke="black" points="234.35,-91.61 242.82,-91.44 236.09,-86.29 234.35,-91.61"/>
</g>
<!-- cb -->
<g id="node2" class="node">
<title>cb</title>
<path fill="#dceaf7" stroke="black" d="M103.6,-130.7C103.6,-130.7 47.5,-130.7 47.5,-130.7 41.5,-130.7 35.5,-124.7 35.5,-118.7 35.5,-118.7 35.5,-101.3 35.5,-101.3 35.5,-95.3 41.5,-89.3 47.5,-89.3 47.5,-89.3 103.6,-89.3 103.6,-89.3 109.6,-89.3 115.6,-95.3 115.6,-101.3 115.6,-101.3 115.6,-118.7 115.6,-118.7 115.6,-124.7 109.6,-130.7 103.6,-130.7"/>
<text xml:space="preserve" text-anchor="middle" x="75.55" y="-113.05" font-family="Arial" font-size="11.00">Hospital B</text>
<text xml:space="preserve" text-anchor="middle" x="75.55" y="-99.55" font-family="Arial" font-size="11.00">Clinical data</text>
</g>
<!-- cb&#45;&gt;pooled -->
<g id="edge2" class="edge">
<title>cb&#45;&gt;pooled</title>
<path fill="none" stroke="black" d="M115.9,-110C148.66,-110 195.97,-110 234.37,-110"/>
<polygon fill="black" stroke="black" points="233.9,-112.8 241.9,-110 233.9,-107.2 233.9,-112.8"/>
</g>
<!-- cc -->
<g id="node3" class="node">
<title>cc</title>
<path fill="#dceaf7" stroke="black" d="M103.6,-203.7C103.6,-203.7 47.5,-203.7 47.5,-203.7 41.5,-203.7 35.5,-197.7 35.5,-191.7 35.5,-191.7 35.5,-174.3 35.5,-174.3 35.5,-168.3 41.5,-162.3 47.5,-162.3 47.5,-162.3 103.6,-162.3 103.6,-162.3 109.6,-162.3 115.6,-168.3 115.6,-174.3 115.6,-174.3 115.6,-191.7 115.6,-191.7 115.6,-197.7 109.6,-203.7 103.6,-203.7"/>
<text xml:space="preserve" text-anchor="middle" x="75.55" y="-186.05" font-family="Arial" font-size="11.00">Hospital C</text>
<text xml:space="preserve" text-anchor="middle" x="75.55" y="-172.55" font-family="Arial" font-size="11.00">Clinical data</text>
</g>
<!-- cc&#45;&gt;pooled -->
<g id="edge3" class="edge">
<title>cc&#45;&gt;pooled</title>
<path fill="none" stroke="black" d="M115.9,-170.12C149.03,-159.27 197.04,-143.55 235.67,-130.91"/>
<polygon fill="black" stroke="black" points="236.09,-133.71 242.82,-128.56 234.35,-128.39 236.09,-133.71"/>
</g>
<!-- server -->
<g id="node5" class="node">
<title>server</title>
<path fill="#dceaf7" stroke="black" d="M594.42,-128C594.42,-128 490.32,-128 490.32,-128 484.32,-128 478.32,-122 478.32,-116 478.32,-116 478.32,-104 478.32,-104 478.32,-98 484.32,-92 490.32,-92 490.32,-92 594.42,-92 594.42,-92 600.42,-92 606.42,-98 606.42,-104 606.42,-104 606.42,-116 606.42,-116 606.42,-122 600.42,-128 594.42,-128"/>
<text xml:space="preserve" text-anchor="middle" x="542.37" y="-106.3" font-family="Arial" font-size="11.00">Central training server</text>
</g>
<!-- pooled&#45;&gt;server -->
<g id="edge4" class="edge">
<title>pooled&#45;&gt;server</title>
<path fill="none" stroke="black" d="M357.76,-110C390.81,-110 432.94,-110 468.51,-110"/>
<polygon fill="black" stroke="black" points="468.37,-112.8 476.37,-110 468.37,-107.2 468.37,-112.8"/>
</g>
<!-- model -->
<g id="node6" class="node">
<title>model</title>
<path fill="#dceaf7" stroke="black" d="M819.77,-130.7C819.77,-130.7 753.92,-130.7 753.92,-130.7 747.92,-130.7 741.92,-124.7 741.92,-118.7 741.92,-118.7 741.92,-101.3 741.92,-101.3 741.92,-95.3 747.92,-89.3 753.92,-89.3 753.92,-89.3 819.77,-89.3 819.77,-89.3 825.77,-89.3 831.77,-95.3 831.77,-101.3 831.77,-101.3 831.77,-118.7 831.77,-118.7 831.77,-124.7 825.77,-130.7 819.77,-130.7"/>
<text xml:space="preserve" text-anchor="middle" x="786.85" y="-113.05" font-family="Arial" font-size="11.00">Trained model</text>
<text xml:space="preserve" text-anchor="middle" x="786.85" y="-99.55" font-family="Arial" font-size="11.00">for prediction</text>
</g>
<!-- server&#45;&gt;model -->
<g id="edge5" class="edge">
<title>server&#45;&gt;model</title>
<path fill="none" stroke="black" d="M606.77,-110C645.83,-110 695.36,-110 732.43,-110"/>
<polygon fill="black" stroke="black" points="732.06,-112.8 740.06,-110 732.06,-107.2 732.06,-112.8"/>
</g>
<!-- fa -->
<g id="node7" class="node">
<title>fa</title>
<path fill="#e3f2e1" stroke="black" d="M123.1,-322.7C123.1,-322.7 28,-322.7 28,-322.7 22,-322.7 16,-316.7 16,-310.7 16,-310.7 16,-293.3 16,-293.3 16,-287.3 22,-281.3 28,-281.3 28,-281.3 123.1,-281.3 123.1,-281.3 129.1,-281.3 135.1,-287.3 135.1,-293.3 135.1,-293.3 135.1,-310.7 135.1,-310.7 135.1,-316.7 129.1,-322.7 123.1,-322.7"/>
<text xml:space="preserve" text-anchor="middle" x="75.55" y="-305.05" font-family="Arial" font-size="11.00">Hospital A</text>
<text xml:space="preserve" text-anchor="middle" x="75.55" y="-291.55" font-family="Arial" font-size="11.00">Local data + training</text>
</g>
<!-- aggregator -->
<g id="node10" class="node">
<title>aggregator</title>
<path fill="#e3f2e1" stroke="black" d="M345.07,-368.7C345.07,-368.7 255.97,-368.7 255.97,-368.7 249.97,-368.7 243.97,-362.7 243.97,-356.7 243.97,-356.7 243.97,-339.3 243.97,-339.3 243.97,-333.3 249.97,-327.3 255.97,-327.3 255.97,-327.3 345.07,-327.3 345.07,-327.3 351.07,-327.3 357.07,-333.3 357.07,-339.3 357.07,-339.3 357.07,-356.7 357.07,-356.7 357.07,-362.7 351.07,-368.7 345.07,-368.7"/>
<text xml:space="preserve" text-anchor="middle" x="300.52" y="-351.05" font-family="Arial" font-size="11.00">Aggregation server</text>
<text xml:space="preserve" text-anchor="middle" x="300.52" y="-337.55" font-family="Arial" font-size="11.00">(FedAvg)</text>
</g>
<!-- fa&#45;&gt;aggregator -->
<g id="edge6" class="edge">
<title>fa&#45;&gt;aggregator</title>
<path fill="none" stroke="black" d="M135.43,-314.15C165.96,-320.45 203.32,-328.15 234.68,-334.62"/>
<polygon fill="black" stroke="black" points="233.89,-337.32 242.3,-336.19 235.03,-331.83 233.89,-337.32"/>
<text xml:space="preserve" text-anchor="middle" x="189.35" y="-332.97" font-family="Arial" font-size="10.00">model update</text>
</g>
<!-- fb -->
<g id="node8" class="node">
<title>fb</title>
<path fill="#e3f2e1" stroke="black" d="M834.4,-334.7C834.4,-334.7 739.3,-334.7 739.3,-334.7 733.3,-334.7 727.3,-328.7 727.3,-322.7 727.3,-322.7 727.3,-305.3 727.3,-305.3 727.3,-299.3 733.3,-293.3 739.3,-293.3 739.3,-293.3 834.4,-293.3 834.4,-293.3 840.4,-293.3 846.4,-299.3 846.4,-305.3 846.4,-305.3 846.4,-322.7 846.4,-322.7 846.4,-328.7 840.4,-334.7 834.4,-334.7"/>
<text xml:space="preserve" text-anchor="middle" x="786.85" y="-317.05" font-family="Arial" font-size="11.00">Hospital B</text>
<text xml:space="preserve" text-anchor="middle" x="786.85" y="-303.55" font-family="Arial" font-size="11.00">Local data + training</text>
</g>
<!-- fb&#45;&gt;aggregator -->
<g id="edge7" class="edge">
<title>fb&#45;&gt;aggregator</title>
<path fill="none" stroke="black" d="M726.97,-304.73C664.66,-296.41 563.57,-287.18 477.2,-299 439.78,-304.12 399.09,-315.11 366.3,-325.38"/>
<polygon fill="black" stroke="black" points="365.49,-322.7 358.72,-327.8 367.19,-328.04 365.49,-322.7"/>
<text xml:space="preserve" text-anchor="middle" x="542.37" y="-301.5" font-family="Arial" font-size="10.00">model update</text>
</g>
<!-- fc -->
<g id="node9" class="node">
<title>fc</title>
<path fill="#e3f2e1" stroke="black" d="M834.4,-429.7C834.4,-429.7 739.3,-429.7 739.3,-429.7 733.3,-429.7 727.3,-423.7 727.3,-417.7 727.3,-417.7 727.3,-400.3 727.3,-400.3 727.3,-394.3 733.3,-388.3 739.3,-388.3 739.3,-388.3 834.4,-388.3 834.4,-388.3 840.4,-388.3 846.4,-394.3 846.4,-400.3 846.4,-400.3 846.4,-417.7 846.4,-417.7 846.4,-423.7 840.4,-429.7 834.4,-429.7"/>
<text xml:space="preserve" text-anchor="middle" x="786.85" y="-412.05" font-family="Arial" font-size="11.00">Hospital C</text>
<text xml:space="preserve" text-anchor="middle" x="786.85" y="-398.55" font-family="Arial" font-size="11.00">Local data + training</text>
</g>
<!-- fc&#45;&gt;aggregator -->
<g id="edge8" class="edge">
<title>fc&#45;&gt;aggregator</title>
<path fill="none" stroke="black" d="M727.13,-409.94C698.53,-409.87 663.68,-408.99 632.55,-406 539.36,-397.04 432.95,-376.53 366.5,-362.46"/>
<polygon fill="black" stroke="black" points="367.28,-359.77 358.87,-360.84 366.11,-365.25 367.28,-359.77"/>
<text xml:space="preserve" text-anchor="middle" x="542.37" y="-405.86" font-family="Arial" font-size="10.00">model update</text>
</g>
<!-- global -->
<g id="node11" class="node">
<title>global</title>
<path fill="#e3f2e1" stroke="black" d="M572.67,-363C572.67,-363 512.07,-363 512.07,-363 506.07,-363 500.07,-357 500.07,-351 500.07,-351 500.07,-339 500.07,-339 500.07,-333 506.07,-327 512.07,-327 512.07,-327 572.67,-327 572.67,-327 578.67,-327 584.67,-333 584.67,-339 584.67,-339 584.67,-351 584.67,-351 584.67,-357 578.67,-363 572.67,-363"/>
<text xml:space="preserve" text-anchor="middle" x="542.37" y="-341.3" font-family="Arial" font-size="11.00">Global model</text>
</g>
<!-- aggregator&#45;&gt;global -->
<g id="edge9" class="edge">
<title>aggregator&#45;&gt;global</title>
<path fill="none" stroke="black" d="M357.46,-347.3C397.7,-346.8 451.53,-346.12 490.55,-345.64"/>
<polygon fill="black" stroke="black" points="490.16,-348.44 498.12,-345.54 490.09,-342.84 490.16,-348.44"/>
</g>
<!-- global&#45;&gt;fa -->
<g id="edge10" class="edge">
<title>global&#45;&gt;fa</title>
<path fill="none" stroke="black" stroke-dasharray="5,2" d="M499.92,-331.53C463,-320.28 407.27,-305.14 357.45,-299 307.23,-292.82 294.2,-298.55 243.6,-299 211.01,-299.29 174.84,-299.91 144.51,-300.5"/>
<polygon fill="black" stroke="black" points="144.76,-297.7 136.82,-300.66 144.87,-303.3 144.76,-297.7"/>
<text xml:space="preserve" text-anchor="middle" x="300.52" y="-301.5" font-family="Arial" font-size="10.00">global model</text>
</g>
<!-- global&#45;&gt;fb -->
<g id="edge11" class="edge">
<title>global&#45;&gt;fb</title>
<path fill="none" stroke="black" stroke-dasharray="5,2" d="M585.06,-339.67C621.51,-335.01 675.16,-328.15 717.82,-322.7"/>
<polygon fill="black" stroke="black" points="717.95,-325.5 725.53,-321.71 717.24,-319.95 717.95,-325.5"/>
<text xml:space="preserve" text-anchor="middle" x="667.42" y="-335.69" font-family="Arial" font-size="10.00">global model</text>
</g>
<!-- global&#45;&gt;fc -->
<g id="edge12" class="edge">
<title>global&#45;&gt;fc</title>
<path fill="none" stroke="black" stroke-dasharray="5,2" d="M585.06,-356C621.59,-365.64 675.38,-379.84 718.09,-391.12"/>
<polygon fill="black" stroke="black" points="717.12,-393.75 725.57,-393.09 718.55,-388.34 717.12,-393.75"/>
<text xml:space="preserve" text-anchor="middle" x="667.42" y="-388.97" font-family="Arial" font-size="10.00">global model</text>
</g>
<!-- owner -->
<g id="node12" class="node">
<title>owner</title>
<path fill="#f0e6f6" stroke="black" d="M114.1,-531.7C114.1,-531.7 37,-531.7 37,-531.7 31,-531.7 25,-525.7 25,-519.7 25,-519.7 25,-502.3 25,-502.3 25,-496.3 31,-490.3 37,-490.3 37,-490.3 114.1,-490.3 114.1,-490.3 120.1,-490.3 126.1,-496.3 126.1,-502.3 126.1,-502.3 126.1,-519.7 126.1,-519.7 126.1,-525.7 120.1,-531.7 114.1,-531.7"/>
<text xml:space="preserve" text-anchor="middle" x="75.55" y="-514.05" font-family="Arial" font-size="11.00">Patient / hospital</text>
<text xml:space="preserve" text-anchor="middle" x="75.55" y="-500.55" font-family="Arial" font-size="11.00">Clinical features</text>
</g>
<!-- encrypted -->
<g id="node13" class="node">
<title>encrypted</title>
<path fill="#f0e6f6" stroke="black" d="M338.7,-531.7C338.7,-531.7 262.35,-531.7 262.35,-531.7 256.35,-531.7 250.35,-525.7 250.35,-519.7 250.35,-519.7 250.35,-502.3 250.35,-502.3 250.35,-496.3 256.35,-490.3 262.35,-490.3 262.35,-490.3 338.7,-490.3 338.7,-490.3 344.7,-490.3 350.7,-496.3 350.7,-502.3 350.7,-502.3 350.7,-519.7 350.7,-519.7 350.7,-525.7 344.7,-531.7 338.7,-531.7"/>
<text xml:space="preserve" text-anchor="middle" x="300.52" y="-514.05" font-family="Arial" font-size="11.00">Encrypt features</text>
<text xml:space="preserve" text-anchor="middle" x="300.52" y="-500.55" font-family="Arial" font-size="11.00">(CKKS)</text>
</g>
<!-- owner&#45;&gt;encrypted -->
<g id="edge13" class="edge">
<title>owner&#45;&gt;encrypted</title>
<path fill="none" stroke="black" d="M126.59,-511C160.42,-511 205.22,-511 240.75,-511"/>
<polygon fill="black" stroke="black" points="240.52,-513.8 248.52,-511 240.52,-508.2 240.52,-513.8"/>
</g>
<!-- cloud -->
<g id="node14" class="node">
<title>cloud</title>
<path fill="#f0e6f6" stroke="black" d="M595.55,-531.7C595.55,-531.7 489.2,-531.7 489.2,-531.7 483.2,-531.7 477.2,-525.7 477.2,-519.7 477.2,-519.7 477.2,-502.3 477.2,-502.3 477.2,-496.3 483.2,-490.3 489.2,-490.3 489.2,-490.3 595.55,-490.3 595.55,-490.3 601.55,-490.3 607.55,-496.3 607.55,-502.3 607.55,-502.3 607.55,-519.7 607.55,-519.7 607.55,-525.7 601.55,-531.7 595.55,-531.7"/>
<text xml:space="preserve" text-anchor="middle" x="542.37" y="-514.05" font-family="Arial" font-size="11.00">Cloud inference server</text>
<text xml:space="preserve" text-anchor="middle" x="542.37" y="-500.55" font-family="Arial" font-size="11.00">Processes ciphertext</text>
</g>
<!-- encrypted&#45;&gt;cloud -->
<g id="edge14" class="edge">
<title>encrypted&#45;&gt;cloud</title>
<path fill="none" stroke="black" d="M350.93,-511C384.56,-511 429.66,-511 467.53,-511"/>
<polygon fill="black" stroke="black" points="467.48,-513.8 475.48,-511 467.48,-508.2 467.48,-513.8"/>
<text xml:space="preserve" text-anchor="middle" x="417.32" y="-513.5" font-family="Arial" font-size="10.00">encrypted query</text>
</g>
<!-- decrypt -->
<g id="node15" class="node">
<title>decrypt</title>
<path fill="#f0e6f6" stroke="black" d="M824.65,-530C824.65,-530 749.05,-530 749.05,-530 743.05,-530 737.05,-524 737.05,-518 737.05,-518 737.05,-506 737.05,-506 737.05,-500 743.05,-494 749.05,-494 749.05,-494 824.65,-494 824.65,-494 830.65,-494 836.65,-500 836.65,-506 836.65,-506 836.65,-518 836.65,-518 836.65,-524 830.65,-530 824.65,-530"/>
<text xml:space="preserve" text-anchor="middle" x="786.85" y="-508.3" font-family="Arial" font-size="11.00">Local decryption</text>
</g>
<!-- cloud&#45;&gt;decrypt -->
<g id="edge15" class="edge">
<title>cloud&#45;&gt;decrypt</title>
<path fill="none" stroke="black" d="M608.04,-511.27C645.13,-511.42 691.32,-511.61 727.33,-511.76"/>
<polygon fill="black" stroke="black" points="727.2,-514.56 735.21,-511.79 727.22,-508.96 727.2,-514.56"/>
<text xml:space="preserve" text-anchor="middle" x="667.42" y="-514.15" font-family="Arial" font-size="10.00">encrypted score</text>
</g>
<!-- output -->
<g id="node16" class="node">
<title>output</title>
<path fill="#f0e6f6" stroke="black" d="M963.25,-531.7C963.25,-531.7 909.4,-531.7 909.4,-531.7 903.4,-531.7 897.4,-525.7 897.4,-519.7 897.4,-519.7 897.4,-502.3 897.4,-502.3 897.4,-496.3 903.4,-490.3 909.4,-490.3 909.4,-490.3 963.25,-490.3 963.25,-490.3 969.25,-490.3 975.25,-496.3 975.25,-502.3 975.25,-502.3 975.25,-519.7 975.25,-519.7 975.25,-525.7 969.25,-531.7 963.25,-531.7"/>
<text xml:space="preserve" text-anchor="middle" x="936.32" y="-514.05" font-family="Arial" font-size="11.00">Risk score /</text>
<text xml:space="preserve" text-anchor="middle" x="936.32" y="-500.55" font-family="Arial" font-size="11.00">prediction</text>
</g>
<!-- decrypt&#45;&gt;output -->
<g id="edge16" class="edge">
<title>decrypt&#45;&gt;output</title>
<path fill="none" stroke="black" d="M836.96,-511.67C853.35,-511.56 871.57,-511.43 887.84,-511.32"/>
<polygon fill="black" stroke="black" points="887.66,-514.12 895.64,-511.27 887.63,-508.52 887.66,-514.12"/>
</g>
</g>
</svg>
